<?xml version="1.0" standalone="no"?><svg xmlns:xlink="http://www.w3.org/1999/xlink" xmlns="http://www.w3.org/2000/svg" viewBox="0 0 1000 1000" preserveAspectRatio="xMaxYMax slice"><g transform="scale(1.5600624024960998)"><rect x="0" y="0" width="641" height="641" fill="#24292d"/><rect x="0" y="0" width="64.1" height="64.1" fill="#24292d"/><rect x="0" y="0" width="32.05" height="32.05" fill="#676384"/><polygon points="0,0 32.05,32.05 0,32.05" fill="#4a4a5e"/><rect x="32.05" y="32.05" width="32.05" height="32.05" fill="#3d3f4e"/><g transform="translate(32.05,32.05) scale(1.6024999999999998) rotate(0)"><path d="M10 0H20L0 20V10L10 0Z" fill="#2a2e36"/><path d="M20 10V20H10L20 10Z" fill="#2a2e36"/></g><rect x="64.1" y="0" width="64.1" height="64.1" fill="#282c33"/><g transform="translate(64.1,0) scale(3.2049999999999996) rotate(0)"><path d="M10 0H20L0 20V10L10 0Z" fill="#656282"/><path d="M20 10V20H10L20 10Z" fill="#656282"/></g><rect x="384.59999999999997" y="0" width="64.1" height="64.1" fill="#24292d"/><rect x="384.6" y="32.05" width="32.05" height="32.05" fill="#6d688c"/><polygon points="384.6,32.05 416.65000000000003,64.1 384.6,64.1" fill="#42405a"/><rect x="576.9" y="0" width="64.1" height="64.1" fill="#24292d"/><rect x="608.95" y="32.05" width="32.05" height="32.05" fill="#646181"/><rect x="608.95" y="32.05" width="32.05" height="32.05" fill="#414353"/><rect x="128.2" y="64.1" width="64.1" height="64.1" fill="#24292d"/><rect x="128.2" y="64.1" width="32.05" height="32.05" fill="#2c2f38"/><g transform="translate(128.2,64.1) scale(1.6024999999999998) rotate(0)"><path d="M5 0H10L5 5L0 10V5L5 0Z" fill="#505067"/><path d="M20 15V20H15L20 15Z" fill="#505067"/><path d="M20 5V10L15 15L10 20H5L20 5Z" fill="#505067"/><path d="M15 0H20L5 15.0002L0 20.0002V15.0002L15 0Z" fill="#505067"/></g><rect x="160.25" y="64.1" width="32.05" height="32.05" fill="#292d33"/><g transform="translate(160.25,64.1) scale(1.6024999999999998) rotate(0)"><path d="M10 0H20L0 20V10L10 0Z" fill="#6b678a"/><path d="M20 10V20H10L20 10Z" fill="#6b678a"/></g><rect x="128.2" y="96.15" width="32.05" height="32.05" fill="#343545"/><path d="M 128.2 128.2 A 32.05 32.05 0 0 0 160.25 96.15 L 128.2 96.15L128.2 128.2" fill="#474461"/><rect x="160.25" y="96.15" width="32.05" height="32.05" fill="#403f56"/><polygon points="192.3,96.15 192.3,128.2 160.25,128.2" fill="#666282"/><rect x="320.5" y="64.1" width="64.1" height="64.1" fill="#24292d"/><rect x="352.55" y="64.1" width="32.05" height="32.05" fill="#505067"/><g transform="translate(352.55,64.1) scale(1.6024999999999998) rotate(0)"><path d="M5 0H10L5 5L0 10V5L5 0Z" fill="#3d3d52"/><path d="M20 15V20H15L20 15Z" fill="#3d3d52"/><path d="M20 5V10L15 15L10 20H5L20 5Z" fill="#3d3d52"/><path d="M15 0H20L5 15.0002L0 20.0002V15.0002L15 0Z" fill="#3d3d52"/></g><rect x="0" y="128.2" width="64.1" height="64.1" fill="#24292d"/><rect x="32.05" y="128.2" width="32.05" height="32.05" fill="#63607f"/><polygon points="64.1,128.2 64.1,160.25 32.05,160.25" fill="#343545"/><rect x="0" y="160.25" width="32.05" height="32.05" fill="#646180"/><g transform="translate(0,160.25) scale(1.6024999999999998) rotate(0)"><path d="M5 0H10L5 5L0 10V5L5 0Z" fill="#343645"/><path d="M20 15V20H15L20 15Z" fill="#343645"/><path d="M20 5V10L15 15L10 20H5L20 5Z" fill="#343645"/><path d="M15 0H20L5 15.0002L0 20.0002V15.0002L15 0Z" fill="#343645"/></g><rect x="192.3" y="128.2" width="64.1" height="64.1" fill="#323442"/><g transform="translate(192.3,128.2) scale(3.2049999999999996) rotate(0)"><path d="M5 0H10L5 5L0 10V5L5 0Z" fill="#3f3e55"/><path d="M20 15V20H15L20 15Z" fill="#3f3e55"/><path d="M20 5V10L15 15L10 20H5L20 5Z" fill="#3f3e55"/><path d="M15 0H20L5 15.0002L0 20.0002V15.0002L15 0Z" fill="#3f3e55"/></g><rect x="320.5" y="128.2" width="64.1" height="64.1" fill="#24292d"/><rect x="320.5" y="128.2" width="32.05" height="32.05" fill="#292d35"/><polygon points="352.55,128.2 352.55,160.25 320.5,160.25" fill="#373a46"/><rect x="352.55" y="128.2" width="32.05" height="32.05" fill="#282c33"/><polygon points="352.55,128.2 384.6,128.2 352.55,160.25" fill="#5d5b77"/><rect x="320.5" y="160.25" width="32.05" height="32.05" fill="#6e6a8e"/><polygon points="320.5,160.25 352.55,160.25 352.55,192.3" fill="#424059"/><rect x="352.55" y="160.25" width="32.05" height="32.05" fill="#474460"/><g transform="translate(352.55,160.25) scale(1.6024999999999998) rotate(0)"><path d="M5 0H10L5 5L0 10V5L5 0Z" fill="#3a3c49"/><path d="M20 15V20H15L20 15Z" fill="#3a3c49"/><path d="M20 5V10L15 15L10 20H5L20 5Z" fill="#3a3c49"/><path d="M15 0H20L5 15.0002L0 20.0002V15.0002L15 0Z" fill="#3a3c49"/></g><rect x="512.8" y="128.2" width="64.1" height="64.1" fill="#24292d"/><rect x="544.85" y="128.2" width="32.05" height="32.05" fill="#43415c"/><g transform="translate(544.85,128.2) scale(1.6024999999999998) rotate(0)"><path d="M10 0H20L0 20V10L10 0Z" fill="#3c3b50"/><path d="M20 10V20H10L20 10Z" fill="#3c3b50"/></g><rect x="128.2" y="192.29999999999998" width="64.1" height="64.1" fill="#24292d"/><rect x="160.25" y="192.3" width="32.05" height="32.05" fill="#676384"/><g transform="translate(160.25,192.3) scale(1.6024999999999998) rotate(0)"><path d="M10 0H20L0 20V10L10 0Z" fill="#79739b"/><path d="M20 10V20H10L20 10Z" fill="#79739b"/></g><rect x="320.5" y="192.29999999999998" width="64.1" height="64.1" fill="#24292d"/><rect x="352.55" y="192.3" width="32.05" height="32.05" fill="#353646"/><path d="M 352.55 224.35000000000002 A 32.05 32.05 0 0 1  384.6 192.3 L 352.55 224.35000000000002 A 32.05 32.05 0 0 0 384.6 192.3" fill="#474461"/><rect x="320.5" y="224.35" width="32.05" height="32.05" fill="#777199"/><rect x="320.5" y="224.35" width="32.05" height="32.05" fill="#4e496b"/><rect x="448.69999999999993" y="192.29999999999998" width="64.1" height="64.1" fill="#24292d"/><rect x="448.7" y="224.35" width="32.05" height="32.05" fill="#353844"/><rect x="448.7" y="224.35" width="32.05" height="32.05" fill="#605e7b"/><rect x="64.1" y="256.4" width="64.1" height="64.1" fill="#24292d"/><rect x="64.1" y="256.4" width="32.05" height="32.05" fill="#767098"/><rect x="64.1" y="256.4" width="32.05" height="32.05" fill="#44415c"/><rect x="96.15" y="288.45" width="32.05" height="32.05" fill="#756f96"/><path d="M 96.15 320.5 A 32.05 32.05 0 0 1  128.2 288.45 L 128.2 320.5L96.15 320.5" fill="#54536b"/><rect x="320.5" y="256.4" width="64.1" height="64.1" fill="#24292d"/><rect x="352.55" y="256.4" width="32.05" height="32.05" fill="#31353e"/><g transform="translate(352.55,256.4) scale(1.6024999999999998) rotate(0)"><path d="M10 0H20L0 20V10L10 0Z" fill="#363944"/><path d="M20 10V20H10L20 10Z" fill="#363944"/></g><rect x="128.2" y="320.5" width="64.1" height="64.1" fill="#24292d"/><rect x="192.29999999999998" y="320.5" width="64.1" height="64.1" fill="#24292d"/><rect x="192.3" y="320.5" width="32.05" height="32.05" fill="#282c33"/><rect x="192.3" y="320.5" width="32.05" height="32.05" fill="#56556f"/><rect x="224.35" y="320.5" width="32.05" height="32.05" fill="#49495d"/><rect x="224.35" y="320.5" width="32.05" height="32.05" fill="#464460"/><rect x="256.4" y="320.5" width="64.1" height="64.1" fill="#24292d"/><rect x="256.4" y="320.5" width="32.05" height="32.05" fill="#403e56"/><g transform="translate(256.4,320.5) scale(1.6024999999999998) rotate(0)"><path d="M10 0H20L0 20V10L10 0Z" fill="#716c91"/><path d="M20 10V20H10L20 10Z" fill="#716c91"/></g><rect x="384.6" y="320.5" width="64.1" height="64.1" fill="#4a4665"/><g transform="translate(384.6,320.5) scale(3.2049999999999996) rotate(0)"><path d="M10 0H20L0 20V10L10 0Z" fill="#757096"/><path d="M20 10V20H10L20 10Z" fill="#757096"/></g><rect x="512.8" y="320.5" width="64.1" height="64.1" fill="#24292d"/><rect x="544.85" y="320.5" width="32.05" height="32.05" fill="#393b48"/><g transform="translate(544.85,320.5) scale(1.6024999999999998) rotate(0)"><path d="M5 0H10L5 5L0 10V5L5 0Z" fill="#44425d"/><path d="M20 15V20H15L20 15Z" fill="#44425d"/><path d="M20 5V10L15 15L10 20H5L20 5Z" fill="#44425d"/><path d="M15 0H20L5 15.0002L0 20.0002V15.0002L15 0Z" fill="#44425d"/></g><rect x="0" y="384.59999999999997" width="64.1" height="64.1" fill="#24292d"/><rect x="32.05" y="416.65" width="32.05" height="32.05" fill="#333543"/><rect x="32.05" y="416.65" width="32.05" height="32.05" fill="#373945"/><rect x="320.5" y="384.59999999999997" width="64.1" height="64.1" fill="#24292d"/><rect x="320.5" y="384.6" width="32.05" height="32.05" fill="#272b32"/><polygon points="352.55,384.6 352.55,416.65000000000003 320.5,416.65000000000003" fill="#2c2f38"/><rect x="320.5" y="416.65" width="32.05" height="32.05" fill="#484563"/><polygon points="320.5,416.65 352.55,416.65 352.55,448.7" fill="#4f4e65"/><rect x="64.1" y="448.69999999999993" width="64.1" height="64.1" fill="#24292d"/><rect x="192.29999999999998" y="448.69999999999993" width="64.1" height="64.1" fill="#24292d"/><rect x="192.3" y="448.7" width="32.05" height="32.05" fill="#31353f"/><polygon points="224.35000000000002,448.7 224.35000000000002,480.75 192.3,480.75" fill="#7a749d"/><rect x="192.3" y="480.75" width="32.05" height="32.05" fill="#363748"/><g transform="translate(192.3,480.75) scale(1.6024999999999998) rotate(0)"><path d="M5 0H10L5 5L0 10V5L5 0Z" fill="#44425c"/><path d="M20 15V20H15L20 15Z" fill="#44425c"/><path d="M20 5V10L15 15L10 20H5L20 5Z" fill="#44425c"/><path d="M15 0H20L5 15.0002L0 20.0002V15.0002L15 0Z" fill="#44425c"/></g><rect x="320.5" y="448.69999999999993" width="64.1" height="64.1" fill="#24292d"/><rect x="320.5" y="480.75" width="32.05" height="32.05" fill="#44425c"/><g transform="translate(320.5,480.75) scale(1.6024999999999998) rotate(0)"><path d="M5 0H10L5 5L0 10V5L5 0Z" fill="#2c2f39"/><path d="M20 15V20H15L20 15Z" fill="#2c2f39"/><path d="M20 5V10L15 15L10 20H5L20 5Z" fill="#2c2f39"/><path d="M15 0H20L5 15.0002L0 20.0002V15.0002L15 0Z" fill="#2c2f39"/></g><rect x="352.55" y="480.75" width="32.05" height="32.05" fill="#46435f"/><rect x="352.55" y="480.75" width="32.05" height="32.05" fill="#3f3e56"/><rect x="576.9" y="448.69999999999993" width="64.1" height="64.1" fill="#24292d"/><rect x="608.95" y="448.7" width="32.05" height="32.05" fill="#43415b"/><path d="M 608.95 448.7 A 32.05 32.05 0 0 1 641 480.75 L 608.95 480.75L608.95 448.7" fill="#393b48"/><rect x="0" y="512.8" width="64.1" height="64.1" fill="#333443"/><polygon points="0,512.8 64.1,512.8 64.1,576.9" fill="#2d303b"/><rect x="192.29999999999998" y="512.8" width="64.1" height="64.1" fill="#24292d"/><rect x="192.3" y="512.8" width="32.05" height="32.05" fill="#4b4767"/><path d="M 192.3 544.8499999999999 A 32.05 32.05 0 0 1  224.35000000000002 512.8 L 192.3 544.8499999999999 A 32.05 32.05 0 0 0 224.35000000000002 512.8" fill="#48485c"/><rect x="0" y="576.9" width="64.1" height="64.1" fill="#24292d"/><rect x="32.05" y="576.9" width="32.05" height="32.05" fill="#3f4150"/><path d="M 32.05 576.9 A 32.05 32.05 0 0 1 64.1 608.9499999999999 L 32.05 608.9499999999999L32.05 576.9" fill="#39394c"/><rect x="32.05" y="608.95" width="32.05" height="32.05" fill="#292d35"/><g transform="translate(32.05,608.95) scale(1.6024999999999998) rotate(0)"><path d="M10 0H20L0 20V10L10 0Z" fill="#454658"/><path d="M20 10V20H10L20 10Z" fill="#454658"/></g><rect x="128.2" y="576.9" width="64.1" height="64.1" fill="#2d303b"/><g transform="translate(128.2,576.9) scale(3.2049999999999996) rotate(0)"><path d="M10 0H20L0 20V10L10 0Z" fill="#605d7b"/><path d="M20 10V20H10L20 10Z" fill="#605d7b"/></g><rect x="256.4" y="576.9" width="64.1" height="64.1" fill="#676485"/><g transform="translate(256.4,576.9) scale(3.2049999999999996) rotate(0)"><path d="M5 0H10L5 5L0 10V5L5 0Z" fill="#77729a"/><path d="M20 15V20H15L20 15Z" fill="#77729a"/><path d="M20 5V10L15 15L10 20H5L20 5Z" fill="#77729a"/><path d="M15 0H20L5 15.0002L0 20.0002V15.0002L15 0Z" fill="#77729a"/></g><rect x="448.69999999999993" y="576.9" width="64.1" height="64.1" fill="#24292d"/><rect x="448.7" y="576.9" width="32.05" height="32.05" fill="#666283"/><g transform="translate(448.7,576.9) scale(1.6024999999999998) rotate(0)"><path d="M10 0H20L0 20V10L10 0Z" fill="#6c688b"/><path d="M20 10V20H10L20 10Z" fill="#6c688b"/></g><rect x="448.7" y="608.95" width="32.05" height="32.05" fill="#54536b"/><path d="M 448.7 608.95 A 32.05 32.05 0 0 1 480.75 641 L 448.7 641L448.7 608.95" fill="#63607f"/></g></svg>